<?xml version="1.0" encoding="UTF-8" standalone="no"?>
<!-- Created with Inkscape (http://www.inkscape.org/) -->

<svg
   width="210mm"
   height="297mm"
   viewBox="0 0 210 297"
   version="1.1"
   id="svg1"
   inkscape:version="1.3.2 (091e20e, 2023-11-25, custom)"
   sodipodi:docname="background.svg"
   inkscape:export-filename="background.png"
   inkscape:export-xdpi="96"
   inkscape:export-ydpi="96"
   xml:space="preserve"
   xmlns:inkscape="http://www.inkscape.org/namespaces/inkscape"
   xmlns:sodipodi="http://sodipodi.sourceforge.net/DTD/sodipodi-0.dtd"
   xmlns="http://www.w3.org/2000/svg"
   xmlns:svg="http://www.w3.org/2000/svg"><sodipodi:namedview
     id="namedview1"
     pagecolor="#505050"
     bordercolor="#eeeeee"
     borderopacity="1"
     inkscape:showpageshadow="0"
     inkscape:pageopacity="0"
     inkscape:pagecheckerboard="0"
     inkscape:deskcolor="#505050"
     inkscape:document-units="mm"
     inkscape:zoom="2.8284271"
     inkscape:cx="188.26718"
     inkscape:cy="1002.5006"
     inkscape:window-width="2560"
     inkscape:window-height="1506"
     inkscape:window-x="-11"
     inkscape:window-y="-11"
     inkscape:window-maximized="1"
     inkscape:current-layer="layer1" /><defs
     id="defs1"><filter
       id="mask-powermask-path-effect3_inverse"
       inkscape:label="filtermask-powermask-path-effect3"
       style="color-interpolation-filters:sRGB"
       height="100"
       width="100"
       x="-50"
       y="-50"><feColorMatrix
         id="mask-powermask-path-effect3_primitive1"
         values="1"
         type="saturate"
         result="fbSourceGraphic" /><feColorMatrix
         id="mask-powermask-path-effect3_primitive2"
         values="-1 0 0 0 1 0 -1 0 0 1 0 0 -1 0 1 0 0 0 1 0 "
         in="fbSourceGraphic" /></filter></defs><g
     inkscape:label="Layer 1"
     inkscape:groupmode="layer"
     id="layer1"><path
       id="rect1"
       style="fill:#95a4de;fill-rule:nonzero;stroke:#95a4de;stroke-width:0.3;stroke-linecap:butt;stroke-linejoin:miter;stroke-dasharray:none;stroke-dashoffset:0;stroke-opacity:1;paint-order:stroke fill markers;fill-opacity:0.40392157"
       d="M 38.91627 -49.336232 L -39.282774 -49.335867 L -39.282409 21.871469 L 38.91627 21.871469 L 38.91627 -49.336232 z M 9.1870768 9.8879285 C 9.4026658 10.093718 9.5104625 10.241898 9.5104625 10.33336 C 9.5104625 10.40849 9.4778632 10.464055 9.4125333 10.499986 C 9.3210712 10.562046 9.196975 10.704291 9.040183 10.926417 C 8.5926723 11.504588 8.1370364 12.022455 7.6731933 12.479764 C 7.6601273 12.558161 7.6534613 12.750788 7.6534613 13.057839 L 7.6534613 13.239081 L 8.3736796 13.239447 L 9.6818386 13.219715 C 9.7341026 13.219715 9.7652182 13.226015 9.7750176 13.239081 C 9.7848169 13.252148 9.7899993 13.283267 9.7899993 13.33226 L 9.7899993 14.125925 C 9.7899993 14.191259 9.7537017 14.223855 9.6818386 14.223855 L 8.3736796 14.204123 L 7.6534613 14.204488 L 7.6534613 15.297057 L 7.6731933 16.801074 C 7.6731933 17.307382 7.5553977 17.658919 7.3202096 17.854909 C 7.1928161 17.962704 7.0150042 18.034203 6.7863491 18.070135 C 6.5772931 18.099534 6.2502048 18.114349 5.8059607 18.114349 C 5.7438974 18.117615 5.7035138 18.119465 5.6839145 18.119465 C 5.589186 18.119465 5.528439 18.097985 5.502307 18.055518 C 5.4827077 18.026118 5.4601078 17.946104 5.4339758 17.815445 C 5.3490468 17.485528 5.2394009 17.232154 5.1054744 17.055763 C 5.494188 17.094963 5.8616599 17.114594 6.207909 17.114594 C 6.4757621 17.114594 6.6098573 16.961231 6.6098573 16.65418 L 6.6098573 14.204488 L 5.9382382 14.204488 L 4.6450609 14.223855 C 4.5862636 14.223855 4.5503314 14.217555 4.5372656 14.204488 C 4.5274663 14.194688 4.5222839 14.168392 4.5222839 14.125925 L 4.5222839 13.33226 C 4.5222839 13.276727 4.530799 13.244124 4.5471316 13.234331 C 4.5601976 13.224531 4.5927969 13.219715 4.6450609 13.219715 L 5.9382382 13.239081 L 6.6098573 13.239081 C 6.6098573 12.722974 6.5835586 12.288455 6.5312947 11.935672 L 6.8988947 11.955404 C 7.3594713 11.498095 7.7321254 11.066908 8.016311 10.661862 L 6.1885424 10.661862 L 4.9636963 10.681594 C 4.9114323 10.681594 4.8803167 10.673445 4.8705173 10.657111 C 4.860718 10.644045 4.8555356 10.611083 4.8555356 10.558817 L 4.8555356 9.7943842 C 4.8555356 9.7388535 4.8622016 9.705136 4.8752676 9.69207 C 4.8883336 9.6822707 4.9175996 9.6770883 4.9633308 9.6770883 L 6.1885424 9.6964549 L 8.4569925 9.6964549 C 8.545188 9.6964549 8.6055696 9.6868216 8.6382346 9.6672223 C 8.6904986 9.6410904 8.7330968 9.6281237 8.7657619 9.6281237 C 8.8670234 9.6281237 9.0074192 9.714804 9.1870768 9.8879285 z M 3.1589483 9.3599146 C 3.185897 9.3803302 3.199874 9.4026506 3.199874 9.4271496 C 3.199874 9.4761468 3.1702426 9.5461621 3.1114453 9.6376243 C 3.0461154 9.7290863 2.9953674 9.8861475 2.9594358 10.108269 C 2.9496365 10.154003 2.9137042 10.359596 2.8516406 10.725443 C 2.8157093 10.934498 2.7845936 11.106375 2.7584616 11.240302 L 3.2583392 11.240302 L 4.3852561 11.22057 C 4.4669187 11.22057 4.5076676 11.251689 4.5076676 11.313749 L 4.5076676 11.352482 C 4.478269 11.630135 4.4571527 11.877209 4.4440867 12.092798 C 4.3428252 13.337334 4.0816661 14.414935 3.6602875 15.326289 C 4.0163361 15.57781 4.3508434 15.846 4.6644275 16.130186 C 4.6970928 16.153052 4.7137575 16.17565 4.7137575 16.198517 C 4.7137575 16.22465 4.6937594 16.268732 4.6545615 16.330795 L 4.2529786 16.982316 C 4.2170473 17.034583 4.184448 17.061244 4.1550493 17.061244 C 4.132184 17.061244 4.1044017 17.044946 4.0717364 17.01228 C 3.8038833 16.734627 3.5064266 16.463103 3.1797766 16.198517 C 2.7126669 16.887749 2.1233011 17.46933 1.411204 17.942973 C 1.29361 18.024635 1.2135957 18.065384 1.1711312 18.065384 C 1.1286666 18.065384 1.058286 17.992036 0.96029106 17.845043 C 0.82309783 17.629454 0.66640258 17.447944 0.49001153 17.300952 C 1.2935707 16.833842 1.9188687 16.268925 2.3663793 15.605826 C 2.1409908 15.4523 1.8898307 15.29524 1.6121781 15.135181 L 1.4846509 15.43445 C 1.4487196 15.512846 1.4127874 15.551746 1.3768557 15.551746 C 1.3539904 15.551746 1.3099083 15.537297 1.2445781 15.507897 L 0.7300843 15.27769 C 0.62228977 15.22869 0.56820875 15.190908 0.56820875 15.164779 C 0.56820875 15.145179 0.58820675 15.094431 0.62740478 15.012769 C 0.98018685 14.170012 1.2883955 13.211326 1.5529821 12.136647 C 1.317794 12.139913 1.10405 12.14473 0.91132645 12.151263 C 0.78393291 12.15453 0.71688529 12.156379 0.71035229 12.156379 C 0.64502229 12.156379 0.61242307 12.118962 0.61242307 12.043833 L 0.61278847 11.333115 C 0.61278847 11.257986 0.64502229 11.220204 0.71035229 11.220204 L 1.7444557 11.239936 C 1.8293847 10.854488 1.8994 10.477019 1.9549304 10.107904 C 2.0006615 9.8139191 2.0236271 9.4986787 2.0236271 9.1622291 C 2.4188737 9.1850944 2.7570794 9.2328748 3.0379984 9.304738 C 3.0918957 9.3210703 3.1319997 9.3394989 3.1589483 9.3599146 z M 3.4589479 12.136647 L 2.5578529 12.136647 C 2.3879949 12.887942 2.186852 13.590286 1.9549304 14.243587 C 2.2619815 14.410178 2.5561052 14.583538 2.8370243 14.763196 C 3.1734739 14.018434 3.3805519 13.142729 3.4589479 12.136647 z M -0.41254513 10.876356 C -0.30413814 10.9866 -0.24957336 11.078377 -0.24957336 11.151873 C -0.24957336 11.20414 -0.27253896 11.253038 -0.31826998 11.298767 C -0.36073447 11.341234 -0.4148155 11.439396 -0.48014553 11.59292 C -0.66306957 12.043697 -0.86051403 12.440436 -1.0728366 12.783418 C -1.1544991 12.910812 -1.2182137 12.974526 -1.2639447 12.974526 C -1.29661 12.974526 -1.3736567 12.945263 -1.4945169 12.886463 C -1.7264385 12.775402 -1.933882 12.705021 -2.116806 12.675623 C -1.8424199 12.33264 -1.6186768 11.937385 -1.4455523 11.489875 L -3.1308119 11.489875 L -3.1308119 15.341271 L -3.1015793 16.997298 C -3.1015793 17.261885 -3.126029 17.462662 -3.1750263 17.599855 C -3.2240235 17.733782 -3.3073707 17.851577 -3.424965 17.952839 C -3.5523586 18.057367 -3.7186876 18.125898 -3.9244772 18.158563 C -4.1074012 18.187963 -4.408191 18.202412 -4.826303 18.202412 C -4.9798286 18.202412 -5.0709602 18.187963 -5.1003587 18.158563 C -5.123224 18.13243 -5.1495227 18.047599 -5.1789213 17.903874 C -5.2344519 17.603356 -5.3277982 17.351831 -5.4584581 17.149307 C -5.2396025 17.181974 -4.9454788 17.198272 -4.5763642 17.198272 C -4.4130392 17.198272 -4.3004258 17.169009 -4.2383623 17.110209 C -4.1828316 17.051409 -4.1550493 16.952881 -4.1550493 16.81569 L -4.1546839 11.489875 L -5.3502974 11.489875 C -5.5920185 11.986383 -5.856876 12.427569 -6.1443281 12.813016 C -6.2292571 12.927343 -6.288155 12.984392 -6.3208199 12.984392 C -6.3567512 12.984392 -6.4286156 12.930677 -6.5364104 12.822882 C -6.7193344 12.636692 -6.9086291 12.48963 -7.1046191 12.381835 C -6.516649 11.718736 -6.0624968 10.87563 -5.7423798 9.8532148 C -5.6574508 9.5755623 -5.6070681 9.31922 -5.5907356 9.0840319 C -5.300017 9.1166972 -4.9995927 9.168929 -4.6892752 9.2407917 C -4.5749476 9.273457 -4.5175336 9.317539 -4.5175336 9.3730692 C -4.5175336 9.4547318 -4.5453159 9.5217794 -4.6008466 9.5740434 C -4.6596438 9.6426399 -4.7215092 9.7897018 -4.786839 10.01509 C -4.884834 10.325408 -4.9489141 10.519885 -4.9783126 10.598281 L -1.3227754 10.598281 C -1.2313133 10.598281 -1.1646311 10.588283 -1.1221666 10.568683 C -1.0568367 10.536016 -1.0109055 10.519718 -0.98477337 10.519718 C -0.88024534 10.519718 -0.73169969 10.600098 -0.53897615 10.760156 C -0.49079526 10.800988 -0.4486808 10.839608 -0.41254513 10.876356 z M -1.6392183 13.11667 C -1.6277855 13.129736 -1.6172275 13.149367 -1.6074278 13.1755 C -1.3003768 14.119519 -0.81807677 15.060057 -0.16151014 15.997543 C -0.33136818 16.105337 -0.52251205 16.265731 -0.7348346 16.478054 C -0.81323062 16.559716 -0.87694524 16.600465 -0.92594275 16.600465 C -0.98473976 16.600465 -1.0451214 16.543051 -1.1071849 16.428724 C -1.6657565 15.458573 -2.1136081 14.488403 -2.4500577 13.518253 C -2.456591 13.495386 -2.4595583 13.479088 -2.4595583 13.469288 C -2.4595583 13.433355 -2.328796 13.360006 -2.067476 13.248947 C -1.8388209 13.147686 -1.708424 13.096938 -1.6757591 13.096938 C -1.6626931 13.096938 -1.6506511 13.103603 -1.6392183 13.11667 z M -6.5667392 9.4183798 C -6.5397906 9.4436952 -6.5265444 9.4697141 -6.5265444 9.4958462 C -6.5265444 9.5513768 -6.5639604 9.6117584 -6.6390899 9.6770883 C -6.6815545 9.7130196 -6.746753 9.8452658 -6.8349484 10.073921 C -6.9688749 10.433236 -7.1537178 10.838489 -7.3889062 11.289266 L -7.3889062 16.639564 L -7.3695396 18.173179 C -7.3695396 18.225446 -7.3758402 18.258407 -7.3889062 18.271474 C -7.4019722 18.281274 -7.4312381 18.285725 -7.4769694 18.285725 L -8.3002327 18.28609 C -8.3557633 18.28609 -8.3883626 18.279425 -8.3981619 18.266358 C -8.4079612 18.253292 -8.4131436 18.222179 -8.4131436 18.173179 L -8.3930462 16.639564 L -8.3934116 14.341516 C -8.3934116 13.85154 -8.3834129 13.363305 -8.3638136 12.876597 C -8.5826692 13.183648 -8.8471612 13.513339 -9.1574788 13.866121 C -9.2130094 13.934717 -9.2619082 13.969165 -9.3043726 13.969165 C -9.3631699 13.969165 -9.4072519 13.908784 -9.4366502 13.787923 C -9.5313787 13.425342 -9.6343585 13.157517 -9.7454195 12.984392 C -8.8177333 12.017508 -8.1598361 10.947691 -7.7711225 9.7750176 C -7.702526 9.575761 -7.6517779 9.3353529 -7.619113 9.0544339 C -7.1944679 9.1654949 -6.8840446 9.2621741 -6.6880545 9.3438366 C -6.6341573 9.3683353 -6.5936878 9.3930644 -6.5667392 9.4183798 z M -4.8200911 13.494866 C -4.7915092 13.523448 -4.776973 13.554286 -4.776973 13.586949 C -4.776973 13.629416 -4.8084541 13.686829 -4.8705173 13.758691 C -4.9358473 13.837087 -4.9947451 13.970817 -5.0470092 14.160274 C -5.3573268 15.074893 -5.7622147 15.866886 -6.2619893 16.536519 C -6.3534513 16.65738 -6.417166 16.718127 -6.4530975 16.718127 C -6.4890288 16.718127 -6.5657099 16.667378 -6.6833042 16.566117 C -6.8890937 16.396259 -7.0832051 16.270314 -7.2661293 16.188651 C -6.7140907 15.584348 -6.2766035 14.818289 -5.9532199 13.890603 C -5.8682909 13.632549 -5.8079093 13.381389 -5.7719778 13.136402 C -5.4551272 13.227864 -5.1806361 13.320479 -4.9487145 13.415208 C -4.8915508 13.439708 -4.848673 13.466285 -4.8200911 13.494866 z "
       transform="rotate(-45)" /><path
       id="rect1-3"
       style="fill:#95a4de;fill-opacity:0.403922;fill-rule:nonzero;stroke:#95a4de;stroke-width:0.267864;stroke-linecap:butt;stroke-linejoin:miter;stroke-dasharray:none;stroke-dashoffset:0;stroke-opacity:1;paint-order:stroke fill markers"
       d="m 2.3616521,274.82273 -1.59370873,6.61566 61.81064363,14.89364 1.594104,-6.61591 z"
       sodipodi:nodetypes="ccccc" /><path
       id="rect1-3-6"
       style="fill:#95a4de;fill-opacity:0.403922;fill-rule:nonzero;stroke:#95a4de;stroke-width:0.3;stroke-linecap:butt;stroke-linejoin:miter;stroke-dasharray:none;stroke-dashoffset:0;stroke-opacity:1;paint-order:stroke fill markers"
       d="m 1.6052156,317.58386 3.69e-4,7.62131 71.2073374,3.7e-4 -3e-6,-7.62168 z"
       sodipodi:nodetypes="ccccc" /><path
       id="rect1-3-6-0"
       style="fill:#95a4de;fill-opacity:0.403922;fill-rule:nonzero;stroke:#95a4de;stroke-width:0.127;stroke-linecap:butt;stroke-linejoin:miter;stroke-dasharray:none;stroke-dashoffset:0;stroke-opacity:1;paint-order:stroke fill markers"
       d="m 18.744578,268.12995 -2.298711,9.60102 9.601324,2.29933 2.298872,-9.60148 z"
       sodipodi:nodetypes="ccccc" /><path
       id="rect2-8"
       style="fill:#95a4de;fill-opacity:0.40314135;fill-rule:nonzero;stroke:#95a4de;stroke-width:0.3;stroke-linecap:butt;stroke-linejoin:miter;stroke-dasharray:none;stroke-dashoffset:0;stroke-opacity:1;paint-order:stroke fill markers"
       d="M 1.0885491 337.74292 L -107.58768 337.74255 L -107.58768 423.16461 L 1.0889145 423.16461 L 1.0885491 337.74292 z M -57.605405 342.11246 L -56.266552 343.45131 L -57.060217 344.24498 L -53.042926 348.26227 L -54.191037 349.41038 L -58.208328 345.39309 L -59.040361 346.22512 L -55.654129 349.61135 L -56.782873 350.7401 L -60.169105 347.35387 L -61.058507 348.24327 L -56.926478 352.3753 C -57.816009 353.21382 -58.520305 353.82918 -59.039995 354.22134 C -59.559686 354.61349 -60.015557 354.84317 -60.407716 354.91013 C -60.796686 354.98027 -61.197156 354.89566 -61.608445 354.65654 C -62.022922 354.4206 -62.757992 353.74323 -63.813314 352.62414 C -63.437097 352.08213 -63.08578 351.52097 -62.760575 350.94071 C -62.314215 351.5146 -61.887191 352.00556 -61.479091 352.41366 C -61.252722 352.64003 -61.039028 352.78354 -60.838166 352.84411 C -60.634116 352.9015 -60.451195 352.88396 -60.288593 352.7915 C -60.119614 352.69904 -59.840415 352.48378 -59.451444 352.14582 L -62.206252 349.39101 L -65.573117 352.75788 L -66.91197 351.41902 L -63.545105 348.05216 L -66.892969 344.7043 L -65.745224 343.55655 L -62.39736 346.90441 L -61.507958 346.01501 L -64.148027 343.37494 L -63.019284 342.2462 L -60.379214 344.88627 L -59.547181 344.05424 L -62.68457 340.91685 L -61.53646 339.76874 L -58.39907 342.90613 L -57.605405 342.11246 z "
       transform="rotate(-45)" /><path
       d="m -0.25889893,277.02775 5.45532503,5.45532 h 8.9634729 v 8.96347 l 5.732735,5.73274 v -20.15153 z"
       style="display:none;fill:#95a4de;fill-rule:evenodd;stroke-width:1.51766;stroke-linecap:square;stroke-linejoin:round;stroke-dasharray:1.51766, 3.03532;paint-order:stroke fill markers"
       id="path5" /><rect
       style="display:none;fill:#95a4de;fill-opacity:0.403922;stroke:#95a4de;stroke-width:0.3;stroke-opacity:0.7152;paint-order:stroke fill markers"
       id="rect3"
       width="213.84235"
       height="49.952675"
       x="-3.9288619"
       y="217.20995" /></g></svg>
